<?xml version="1.0" encoding="UTF-8"?>
<!DOCTYPE svg PUBLIC "-//W3C//DTD SVG 1.1//EN" "http://www.w3.org/Graphics/SVG/1.1/DTD/svg11.dtd">
<!-- Creator: CorelDRAW X6 -->
<svg xmlns="http://www.w3.org/2000/svg" xml:space="preserve" width="10mm" height="10mm" version="1.1" style="shape-rendering:geometricPrecision; text-rendering:geometricPrecision; image-rendering:optimizeQuality; fill-rule:evenodd; clip-rule:evenodd"
viewBox="0 0 1000 1000"
 xmlns:xlink="http://www.w3.org/1999/xlink">
 <defs>
  <style type="text/css">
   <![CDATA[
    .fil1 {fill:#FEFEFE}
    .fil0 {fill:#FF1200}
   ]]>
  </style>
 </defs>
 <g id="Слой_x0020_1">
  <metadata id="CorelCorpID_0Corel-Layer"/>
  <circle class="fil0" cx="496" cy="500" r="470"/>
  <path class="fil1" d="M364 341c4,3 15,3 24,9 16,10 18,29 20,46 1,5 0,10 1,16 1,7 1,51 -1,61 0,3 -1,6 -2,10 -1,5 -1,13 -3,18 -4,10 -7,17 -19,17 -2,0 -6,-2 -7,-3l-11 -9c-12,-13 -25,-30 -34,-46l-15 -25c-12,-19 -21,-40 -31,-60 -2,-4 -4,-10 -6,-14l-4 -8c-4,-8 -9,-17 -19,-20 -3,-1 -6,-2 -8,-2l-106 0c-3,0 -4,0 -7,1 -4,1 -8,2 -11,5 -7,8 -2,20 2,27 1,3 2,5 3,8 5,11 16,36 22,47l27 53c1,1 1,2 2,3l17 29c2,4 4,8 6,12 5,6 9,14 13,21l13 21c1,2 1,2 2,3l5 7c12,18 24,36 39,52l10 13c7,7 12,14 20,20 2,2 4,4 6,6 2,2 4,3 6,5 6,6 13,10 19,15l17 11c2,1 1,1 4,2 8,4 15,8 23,12 6,2 10,5 16,7l35 11c38,7 47,5 89,5 3,0 5,-1 8,-2 3,-1 4,-2 7,-3l4 -2c1,-1 0,0 2,-1 2,-2 3,-4 4,-6 1,-2 0,-2 1,-3 4,-10 1,-22 3,-32 2,-11 4,-21 9,-31 3,-5 3,-7 8,-11 13,-11 20,-6 33,2 7,4 13,11 18,17 1,1 1,1 2,2l2 2c9,10 17,20 27,30 3,3 4,4 7,7 3,4 7,7 11,10l16 12c2,1 2,1 5,3l16 6c2,1 3,1 6,1l107 0c5,0 9,-1 13,-2 13,-4 24,-8 24,-24 0,-10 -14,-30 -20,-39 -4,-6 -25,-31 -30,-34l-10 -10c0,0 0,0 0,0l-5 -5c-2,-2 -2,-2 -4,-4l-35 -33c-12,-14 -20,-24 -11,-43 5,-12 24,-35 33,-47l42 -57c5,-7 10,-13 14,-21 1,-1 1,-2 2,-3 3,-4 5,-8 8,-12 5,-8 9,-18 13,-27 1,-3 1,-4 2,-8 2,-6 3,-13 -1,-20 -4,-5 -17,-9 -24,-9l-127 0c-5,0 -10,3 -13,6 -6,7 -16,37 -22,48l-9 20c-6,13 -14,25 -21,38 -9,17 -21,32 -32,47 -7,9 -22,27 -33,27 -8,0 -14,-10 -16,-17 -4,-13 -4,-27 -4,-41 0,-5 1,-6 1,-11l0 -33c0,-5 1,-6 1,-10 0,-7 -1,-16 0,-22 1,-11 0,-24 0,-35 0,-11 -7,-22 -17,-26 -26,-10 -66,-8 -93,-8 -9,0 -15,1 -24,1 -3,0 -8,1 -11,2 -3,1 -7,1 -10,2 -9,4 -18,6 -24,14 -3,4 -3,4 -4,9z"/>
 </g>
</svg>
