<?xml version="1.0" encoding="UTF-8"?>
<!DOCTYPE svg PUBLIC "-//W3C//DTD SVG 1.1//EN" "http://www.w3.org/Graphics/SVG/1.1/DTD/svg11.dtd">
<!-- Creator: CorelDRAW X6 -->
<svg xmlns="http://www.w3.org/2000/svg" xml:space="preserve" width="212mm" height="102mm" version="1.1" style="shape-rendering:geometricPrecision; text-rendering:geometricPrecision; image-rendering:optimizeQuality; fill-rule:evenodd; clip-rule:evenodd"
viewBox="0 0 21200 10200"
 xmlns:xlink="http://www.w3.org/1999/xlink">
 <defs>
  <style type="text/css">
   <![CDATA[
    .fil0 {fill:red;fill-rule:nonzero}
   ]]>
  </style>
 </defs>
 <g id="Слой_x0020_1">
  <metadata id="CorelCorpID_0Corel-Layer"/>
  <path class="fil0" d="M5839 4671c0,180 80,271 241,271 138,0 365,-187 682,-562 241,-284 432,-544 575,-778l47 0c-116,235 -312,510 -588,826 -330,379 -582,568 -755,568 -94,0 -167,-47 -221,-142 -49,-77 -74,-165 -74,-264 0,-564 332,-1340 996,-2328 548,-803 1108,-1475 1678,-2017l-20 -7c-241,0 -891,690 -1952,2071 -633,866 -1268,1730 -1905,2592l-94 -7c285,-397 584,-947 896,-1651 450,-1011 709,-1584 776,-1719 89,-171 314,-535 675,-1090 -526,383 -1021,1020 -1484,1908l140 81 -27 27 -140 -68c-441,866 -691,1347 -749,1441 -263,433 -559,756 -889,968 -383,248 -900,411 -1551,487 -76,9 -154,14 -234,14 -383,0 -706,-81 -969,-244 -312,-194 -468,-474 -468,-839 0,-424 169,-855 508,-1293 312,-402 706,-737 1183,-1005 477,-268 923,-403 1337,-403 450,0 711,214 782,643 303,-9 597,27 883,108 241,-352 517,-715 829,-1090 455,-541 764,-812 929,-812l7 14 -7 20c-147,226 -357,573 -628,1042 -321,641 -784,1611 -1391,2910 125,-131 481,-593 1070,-1387 637,-862 1123,-1489 1457,-1881 539,-627 907,-938 1103,-934l33 27 -7 27c-174,180 -432,460 -776,839 -361,438 -749,1022 -1163,1753 -490,871 -735,1498 -735,1881zm-1844 2054l7 18c-218,118 -647,766 -1286,1945 27,5 46,7 57,7 135,0 258,-49 368,-149l17 11c-119,108 -242,163 -368,163 -27,0 -54,-2 -81,-7l-189 371 -169 0 233 -435c-92,-87 -138,-202 -138,-343 0,-26 2,-52 7,-78 -182,285 -426,516 -732,693 -313,181 -631,272 -955,272 -198,0 -357,-42 -476,-127 -137,-99 -206,-247 -206,-445 0,-339 171,-647 513,-923 320,-262 646,-392 979,-392 281,0 435,121 462,364 128,9 259,40 391,92l-10 18c-122,-50 -249,-81 -381,-95 -14,247 -156,481 -429,700 -257,207 -507,311 -753,311 -178,0 -267,-60 -267,-180 0,-149 90,-297 270,-446 135,-113 290,-205 466,-276 221,-90 451,-131 692,-124 -16,-226 -162,-339 -439,-339 -333,0 -656,126 -969,378 -338,269 -506,572 -506,909 0,179 63,318 189,417 112,92 256,138 432,138 376,0 772,-216 1188,-647 328,-401 657,-801 985,-1202 360,-431 661,-647 904,-647 70,0 108,32 115,95l78 -46zm-1282 1527c0,97 -18,187 -54,272 436,-674 835,-1241 1195,-1701 23,-28 34,-52 34,-71 0,-33 -27,-50 -81,-50 -153,0 -318,88 -496,265 -131,132 -276,322 -435,569 -108,174 -216,350 -324,527l41 -4c40,-5 72,17 94,64 18,35 27,78 27,127zm-2106 258c0,106 82,159 246,159 196,0 435,-114 717,-343 282,-229 431,-443 447,-643l-34 0c-256,0 -535,72 -837,216 -360,174 -540,378 -540,612zm1860 -209c0,123 42,231 125,325 65,-137 98,-256 98,-357 0,-127 -34,-191 -101,-191 -81,0 -122,74 -122,223zm1681 166c-32,52 -64,104 -96,156 -33,52 -62,103 -89,152 -27,50 -50,97 -68,141 -18,45 -27,86 -27,124 0,33 20,49 61,49 65,0 152,-66 260,-198 9,-12 31,-41 66,-88 35,-47 83,-114 143,-202l20 0c-56,83 -102,149 -138,200 -36,51 -63,88 -81,111 -112,134 -207,202 -283,202 -41,0 -73,-18 -96,-53 -24,-35 -35,-74 -35,-117 0,-92 25,-179 74,-262 13,-21 27,-41 40,-60l-317 0c-20,31 -45,68 -74,113 -59,94 -134,210 -226,346l-145 0c344,-516 516,-813 516,-891 0,-40 -24,-60 -71,-60 -47,0 -127,66 -240,198 -5,7 -25,34 -61,80 -36,46 -87,110 -152,193l-24 0c59,-80 107,-144 145,-193 38,-48 66,-82 84,-101 117,-134 207,-202 270,-202 85,0 128,57 128,170 0,26 -8,61 -24,104 -16,44 -41,95 -74,154 -11,16 -25,38 -41,64l324 -7c31,-52 65,-104 101,-156 11,-16 26,-39 46,-69 19,-29 39,-61 61,-94 21,-33 42,-64 61,-94 19,-29 34,-54 46,-72l145 0c-9,17 -24,40 -44,71 -20,31 -42,64 -64,99 -22,35 -45,70 -67,104 -23,34 -41,63 -54,87zm796 7c-7,-12 -10,-21 -10,-28 0,-40 30,-80 89,-118 60,-39 89,-80 89,-122 0,-54 -26,-81 -78,-81 -95,0 -220,113 -376,338 -156,225 -235,391 -235,497 0,35 14,66 41,92 27,26 57,39 91,39 92,0 201,-61 327,-184 2,-5 90,-106 263,-304l30 0c-124,160 -217,270 -280,329 -130,123 -252,184 -364,184 -59,0 -109,-25 -150,-74 -42,-50 -62,-105 -62,-166 0,-146 83,-311 250,-493 166,-183 318,-274 456,-274 79,0 118,38 118,113 0,52 -15,108 -44,170 -34,73 -73,108 -118,106l-37 -21zm969 -336l145 0c-94,148 -189,296 -283,442 -131,219 -196,369 -196,449 0,42 23,64 68,64 74,0 159,-64 253,-191 70,-94 128,-194 175,-301l24 0c-153,342 -307,513 -462,513 -88,0 -132,-88 -132,-265 -49,57 -99,113 -148,170 -61,64 -123,95 -186,95 -45,0 -81,-26 -108,-78 -23,-42 -34,-90 -34,-141 0,-94 22,-180 67,-258 61,-104 159,-214 294,-332 155,-132 279,-198 371,-198 65,0 90,50 74,149l78 -117zm-736 955c85,0 215,-126 388,-378 166,-245 250,-418 250,-520 0,-47 -18,-71 -54,-71 -101,0 -235,118 -400,355 -165,237 -248,413 -248,529 0,57 21,85 64,85zm1988 -951c-43,75 -89,157 -140,246 -51,88 -98,174 -143,258 -45,84 -83,159 -115,226 -32,67 -48,117 -51,150 0,21 8,32 24,32 5,0 20,-16 46,-50 26,-33 56,-75 91,-127 35,-52 74,-108 116,-168 43,-60 83,-118 122,-175 16,-24 38,-54 66,-92 28,-38 59,-76 93,-115 34,-39 70,-75 108,-108 38,-33 78,-57 118,-71 32,-12 59,-18 83,-19 24,-1 49,2 76,9 -47,73 -94,146 -142,219 -47,73 -95,146 -142,219 -130,214 -196,365 -196,453 0,40 24,60 71,60 63,0 149,-66 257,-198 40,-47 80,-96 118,-147 38,-51 70,-100 95,-147l27 0c-101,172 -196,301 -285,387 -89,86 -167,129 -235,129 -45,0 -75,-18 -89,-55 -15,-37 -20,-79 -17,-127 3,-48 11,-97 24,-145 12,-48 24,-84 35,-108 25,-54 62,-117 111,-187 50,-71 110,-165 182,-283 -16,-12 -38,-8 -66,12 -28,20 -59,50 -93,88 -34,39 -70,83 -108,133 -38,49 -74,98 -108,147 -34,48 -64,93 -89,134 -26,41 -46,71 -59,90 -11,14 -27,37 -47,67 -20,31 -42,62 -64,94 -23,32 -44,60 -66,85 -21,25 -39,37 -52,37 -23,0 -39,-4 -49,-12 -10,-8 -17,-19 -20,-34 -3,-14 -5,-29 -3,-46 1,-16 2,-33 2,-49 5,-52 20,-111 46,-179 26,-67 57,-135 93,-203 36,-68 74,-136 115,-202 41,-66 77,-123 108,-170 -34,5 -79,36 -137,94 -57,58 -118,127 -182,207 -64,80 -128,163 -191,249 -63,86 -116,159 -159,217 -50,64 -91,104 -125,120 -34,17 -65,24 -94,21 -38,-5 -67,-30 -86,-76 -19,-46 -28,-100 -27,-163 1,-62 12,-127 34,-193 21,-66 55,-120 100,-163 47,-17 77,-17 88,-2 11,15 14,32 7,51 -50,42 -89,87 -118,134 -29,47 -50,92 -61,134 -11,42 -16,82 -14,118 2,37 10,67 24,90 27,54 66,67 118,39 31,-17 65,-45 100,-87 35,-41 71,-89 110,-143 38,-54 79,-112 121,-173 43,-61 87,-120 132,-177 83,-104 155,-183 214,-237 60,-54 119,-95 177,-124l125 0zm2626 -1047c-38,78 -77,138 -116,182 -39,44 -79,75 -120,94 -41,19 -81,30 -121,34 -41,4 -81,3 -122,-2 -52,-5 -102,-9 -150,-12 -48,-4 -94,8 -137,34 -40,17 -83,50 -128,99 -45,49 -89,110 -132,180 -43,71 -85,150 -127,237 -42,87 -79,177 -113,269 -16,40 -33,78 -52,115 -19,37 -37,71 -52,104 -20,40 -38,77 -52,111 -15,34 -28,62 -39,83 32,26 61,39 88,39 88,0 180,-72 277,-216l10 25c-92,146 -189,219 -290,219 -36,0 -69,-14 -98,-42 -187,311 -349,467 -486,467 -122,0 -182,-90 -182,-269 0,-146 77,-305 230,-477 151,-172 296,-258 435,-258 18,0 38,2 59,5 21,4 42,11 61,21 19,11 34,27 46,50 11,22 15,51 10,87 -2,12 -7,18 -15,19 -8,1 -12,12 -12,34 7,-52 3,-92 -10,-120 -13,-28 -29,-48 -47,-60 -18,-12 -36,-18 -54,-19 -18,-1 -28,-2 -30,-2 -119,0 -247,114 -385,343 -133,214 -199,387 -199,516 0,73 28,110 84,110 128,0 283,-158 466,-474 -20,-21 -30,-42 -30,-64 0,-31 10,-50 29,-58 19,-8 46,-14 79,-16 45,-99 85,-191 121,-276 36,-85 71,-166 106,-242 35,-77 72,-150 111,-219 39,-70 86,-138 140,-207 45,-59 86,-108 121,-149 36,-40 73,-71 111,-92 50,-28 98,-45 145,-49 47,-5 93,-5 138,0 47,5 92,10 133,16 42,6 80,5 115,-2 35,-7 66,-26 94,-57 28,-31 52,-81 73,-152l17 42zm-1053 1453c-52,42 -92,87 -121,133 -29,46 -51,91 -64,134 -14,44 -19,84 -17,122 2,38 9,68 20,92 11,26 28,43 49,51 21,8 44,5 69,-9 29,-16 62,-45 98,-85 36,-40 74,-87 115,-141 41,-54 83,-112 127,-173 44,-61 89,-120 137,-177 83,-101 151,-177 202,-226 52,-50 107,-87 165,-113 52,-26 105,-32 159,-18 -47,73 -94,146 -142,219 -47,73 -95,146 -142,219 -131,214 -196,365 -196,453 0,40 24,60 71,60 63,0 149,-66 257,-198 81,-94 147,-191 199,-290l27 0c-202,342 -371,513 -506,513 -45,0 -75,-18 -89,-55 -15,-37 -20,-79 -17,-127 3,-48 11,-97 24,-145 12,-48 24,-84 35,-108 25,-54 62,-117 111,-187 50,-71 110,-165 182,-283 -34,2 -79,32 -135,88 -56,57 -116,124 -179,203 -63,79 -125,160 -187,244 -62,84 -115,155 -160,214 -52,66 -94,107 -127,122 -33,15 -64,21 -93,16 -38,-5 -66,-31 -84,-78 -18,-47 -25,-103 -22,-166 3,-64 17,-128 40,-194 24,-66 58,-120 103,-163 45,-14 73,-14 84,2 11,15 13,32 7,51zm1023 541c97,-5 198,-78 304,-219 9,-14 18,-28 27,-42 -13,-2 -26,-6 -37,-11 -45,-19 -76,-45 -93,-80 -17,-34 -20,-72 -10,-113 10,-41 35,-80 76,-115 59,-14 106,-9 143,16 37,25 62,59 74,103 12,44 11,94 -5,150 -2,7 -6,15 -10,25 4,-2 9,-5 13,-7 52,-12 101,-37 147,-76 46,-39 95,-95 147,-168l10 25c-45,73 -95,130 -150,171 -55,41 -109,67 -160,76 -5,2 -10,4 -17,4 -18,38 -43,73 -74,106 -54,54 -115,99 -182,134 -67,35 -127,54 -179,57 -56,-5 -98,-24 -127,-58 -28,-34 -42,-70 -42,-108 0,-111 50,-253 149,-428 11,-19 38,-61 81,-126 43,-65 102,-154 179,-267l145 0 -283 438c-131,214 -196,365 -196,453 0,40 24,60 71,60zm371 -346c16,-47 24,-88 24,-124 0,-35 -9,-62 -27,-81 -18,-19 -46,-21 -84,-7 -43,35 -66,73 -71,113 -5,40 5,75 27,104 22,29 55,50 98,62l3 4c11,-24 21,-47 30,-71zm3064 -1648c-38,78 -77,138 -116,182 -39,44 -79,75 -120,94 -40,19 -81,30 -121,34 -40,4 -81,3 -122,-2 -52,-5 -102,-9 -150,-12 -48,-4 -94,8 -137,34 -41,17 -83,50 -128,99 -45,49 -89,110 -132,180 -43,71 -85,150 -127,237 -42,87 -79,177 -113,269 -16,40 -33,78 -52,115 -19,37 -37,71 -52,104 -20,40 -38,77 -52,111 -15,34 -28,62 -39,83 32,26 61,39 88,39 88,0 180,-72 277,-216l10 25c-92,146 -189,219 -290,219 -36,0 -69,-14 -98,-42 -187,311 -349,467 -486,467 -122,0 -182,-90 -182,-269 0,-146 77,-305 230,-477 151,-172 296,-258 435,-258 18,0 38,2 59,5 21,4 42,11 61,21 19,11 34,27 46,50 11,22 15,51 10,87 -2,12 -7,18 -15,19 -8,1 -12,12 -12,34 7,-52 3,-92 -10,-120 -14,-28 -29,-48 -47,-60 -18,-12 -36,-18 -54,-19 -18,-1 -28,-2 -30,-2 -119,0 -247,114 -385,343 -133,214 -199,387 -199,516 0,73 28,110 84,110 128,0 283,-158 466,-474 -20,-21 -30,-42 -30,-64 0,-31 10,-50 29,-58 19,-8 46,-14 79,-16 45,-99 86,-191 122,-276 36,-85 71,-166 106,-242 35,-77 72,-150 111,-219 39,-70 86,-138 140,-207 45,-59 86,-108 122,-149 36,-40 73,-71 111,-92 50,-28 98,-45 145,-49 47,-5 93,-5 138,0 47,5 92,10 133,16 42,6 80,5 115,-2 35,-7 66,-26 95,-57 28,-31 52,-81 73,-152l17 42zm-445 1043l145 0c-95,148 -189,296 -283,442 -130,219 -196,369 -196,449 0,42 23,64 68,64 74,0 159,-64 253,-191 70,-94 128,-194 176,-301l24 0c-153,342 -307,513 -462,513 -88,0 -132,-88 -132,-265 -49,57 -99,113 -148,170 -61,64 -123,95 -186,95 -45,0 -81,-26 -108,-78 -23,-42 -34,-90 -34,-141 0,-94 22,-180 67,-258 61,-104 159,-214 294,-332 155,-132 279,-198 371,-198 65,0 90,50 74,149l78 -117zm-736 955c86,0 215,-126 388,-378 167,-245 250,-418 250,-520 0,-47 -18,-71 -54,-71 -101,0 -235,118 -400,355 -165,237 -248,413 -248,529 0,57 21,85 64,85zm81 1050l-162 0 1586 -2514 71 0 -472 813c160,-224 294,-336 402,-336 34,0 63,14 88,42 25,28 37,60 37,95 0,94 -67,233 -201,415 -134,183 -201,308 -201,377 0,35 19,53 57,53 117,0 292,-163 526,-488l27 0c-247,342 -433,513 -557,513 -40,0 -73,-18 -98,-53 -25,-35 -37,-75 -37,-120 0,-99 35,-202 105,-308 20,-28 87,-107 199,-237 70,-83 105,-147 105,-194 0,-47 -20,-71 -61,-71 -122,0 -268,140 -439,421l-975 1591zm2501 -2005l145 0c-95,148 -189,296 -284,442 -131,219 -196,369 -196,449 0,42 22,64 68,64 74,0 159,-64 253,-191 70,-94 128,-194 176,-301l24 0c-153,342 -307,513 -462,513 -88,0 -132,-88 -132,-265 -50,57 -99,113 -148,170 -61,64 -123,95 -186,95 -45,0 -81,-26 -108,-78 -23,-42 -34,-90 -34,-141 0,-94 23,-180 68,-258 61,-104 159,-214 294,-332 155,-132 279,-198 371,-198 65,0 90,50 74,149l78 -117zm-736 955c86,0 215,-126 388,-378 167,-245 250,-418 250,-520 0,-47 -18,-71 -54,-71 -101,0 -235,118 -400,355 -165,237 -248,413 -248,529 0,57 21,85 64,85zm2970 -1998c-38,78 -77,138 -116,182 -39,44 -79,75 -120,94 -41,19 -81,30 -121,34 -40,4 -81,3 -122,-2 -52,-5 -102,-9 -150,-12 -48,-4 -94,8 -137,34 -40,17 -83,50 -128,99 -45,49 -89,110 -132,180 -43,71 -85,150 -127,237 -42,87 -79,177 -113,269 -16,40 -33,78 -52,115 -19,37 -37,71 -52,104 -20,40 -38,77 -52,111 -15,34 -28,62 -39,83 32,26 61,39 88,39 40,0 82,-15 124,-46 61,-98 155,-201 281,-311 155,-132 279,-198 371,-198 65,0 90,50 74,149l78 -117 145 0c-94,148 -189,296 -283,442 -131,219 -196,369 -196,449 0,42 23,64 68,64 74,0 159,-64 253,-191 70,-94 128,-194 175,-301l24 0c-153,342 -307,513 -462,513 -88,0 -132,-88 -132,-265 -50,57 -99,113 -148,170 -61,64 -123,95 -186,95 -45,0 -81,-26 -108,-78 -23,-42 -34,-90 -34,-141 0,-83 17,-159 52,-229 -33,16 -66,24 -99,24 -36,0 -69,-14 -98,-42 -187,311 -349,467 -486,467 -122,0 -182,-90 -182,-269 0,-146 77,-305 230,-477 151,-172 296,-258 435,-258 18,0 38,2 59,5 21,4 42,11 61,21 19,11 34,27 46,50 11,22 15,51 10,87 -2,12 -7,18 -15,19 -8,1 -12,12 -12,34 7,-52 3,-92 -10,-120 -14,-28 -29,-48 -47,-60 -18,-12 -36,-18 -54,-19 -18,-1 -28,-2 -30,-2 -119,0 -247,114 -385,343 -133,214 -199,387 -199,516 0,73 28,110 84,110 128,0 283,-158 466,-474 -20,-21 -30,-42 -30,-64 0,-31 10,-50 29,-58 19,-8 46,-14 79,-16 45,-99 86,-191 122,-276 36,-85 71,-166 106,-242 35,-77 72,-150 111,-219 39,-70 86,-138 140,-207 45,-59 86,-108 122,-149 36,-40 73,-71 111,-92 50,-28 98,-45 145,-49 47,-5 93,-5 138,0 47,5 92,10 133,16 42,6 80,5 115,-2 35,-7 66,-26 94,-57 28,-31 52,-81 73,-152l17 42zm-1181 1998c86,0 215,-126 388,-378 167,-245 250,-418 250,-520 0,-47 -18,-71 -54,-71 -101,0 -235,118 -400,355 -165,237 -248,413 -248,529 0,57 21,85 64,85zm1941 -626c-32,52 -64,104 -96,156 -33,52 -62,103 -89,152 -27,50 -50,97 -68,141 -18,45 -27,86 -27,124 0,33 20,49 61,49 65,0 152,-66 260,-198 9,-12 31,-41 66,-88 35,-47 83,-114 143,-202l20 0c-56,83 -102,149 -138,200 -36,51 -63,88 -81,111 -112,134 -207,202 -283,202 -40,0 -73,-18 -96,-53 -24,-35 -35,-74 -35,-117 0,-92 25,-179 74,-262 14,-21 27,-41 40,-60l-317 0c-20,31 -45,68 -74,113 -59,94 -134,210 -226,346l-145 0c344,-516 516,-813 516,-891 0,-40 -24,-60 -71,-60 -47,0 -127,66 -240,198 -5,7 -25,34 -61,80 -36,46 -87,110 -152,193l-24 0c59,-80 107,-144 145,-193 38,-48 66,-82 84,-101 117,-134 207,-202 270,-202 86,0 128,57 128,170 0,26 -8,61 -24,104 -16,44 -40,95 -74,154 -11,16 -25,38 -41,64l324 -7c32,-52 65,-104 101,-156 11,-16 26,-39 46,-69 19,-29 39,-61 61,-94 21,-33 42,-64 61,-94 19,-29 34,-54 46,-72l145 0c-9,17 -24,40 -44,71 -20,31 -42,64 -64,99 -23,35 -45,70 -68,104 -22,34 -40,63 -54,87zm1066 297c-79,111 -134,183 -165,216 -81,90 -153,134 -216,134 -76,0 -115,-62 -115,-187 0,-45 8,-94 24,-148 -72,104 -124,171 -155,202 -81,90 -153,134 -216,134 -77,0 -115,-62 -115,-187 0,-106 51,-244 152,-414 43,-61 85,-124 127,-187 42,-64 84,-126 127,-187l142 0c-45,73 -91,146 -138,219l-142 219c-130,214 -196,361 -196,438 0,50 24,74 71,74 72,0 198,-131 378,-392 23,-57 54,-118 95,-184 43,-61 85,-124 127,-187 42,-64 84,-126 127,-187l142 0c-45,73 -91,146 -138,219l-142 219c-131,214 -196,361 -196,438 0,50 24,74 71,74 74,0 205,-137 391,-410 56,-87 168,-268 334,-541l145 0 -283 438c-130,214 -196,365 -196,453 0,40 24,60 71,60 63,0 149,-66 257,-198 81,-94 147,-191 199,-290l27 0c-133,224 -251,375 -354,453 -4,9 -9,19 -13,28 -7,19 -12,37 -15,55 -3,18 -5,32 -5,44 0,24 3,59 8,106 6,47 8,82 8,106 0,99 -37,180 -111,244 -70,66 -160,99 -270,99 -110,0 -165,-40 -165,-120 0,-40 14,-75 42,-104 28,-29 65,-44 110,-44 54,0 81,25 81,74 0,35 -15,53 -44,53l-34 -21c0,-5 3,-12 8,-23 6,-11 8,-19 8,-27 0,-21 -16,-32 -47,-32 -34,0 -60,13 -79,39 -19,26 -29,55 -29,88 0,26 11,49 34,69 23,20 47,30 74,30 117,0 213,-74 287,-223 49,-106 83,-229 101,-368l24 -57c-45,28 -87,42 -125,42 -74,0 -111,-51 -111,-152 0,-33 2,-66 5,-99 3,-33 11,-66 22,-99zm280 240c-7,5 -13,11 -20,18l20 -18zm176 -78c0,-106 51,-244 152,-414 83,-125 168,-250 253,-375l142 0c-92,146 -186,292 -280,438 -131,217 -196,363 -196,438 0,50 24,74 71,74 72,0 201,-137 388,-410 59,-87 170,-268 334,-541l145 0c-95,146 -189,292 -284,438 -131,217 -196,368 -196,453 0,40 24,60 71,60 63,0 149,-66 257,-198 81,-97 147,-193 199,-290l27 0c-202,342 -371,513 -506,513 -74,0 -111,-51 -111,-152 0,-68 10,-134 30,-198 -79,111 -134,183 -165,216 -81,90 -153,134 -216,134 -76,0 -115,-62 -115,-187zm948 0c0,-106 51,-244 152,-414 83,-125 168,-250 253,-375l142 0c-92,146 -186,292 -280,438 -131,217 -196,363 -196,438 0,50 24,74 71,74 72,0 201,-137 388,-410 59,-87 170,-268 334,-541l145 0 -284 438c-130,217 -196,368 -196,453 0,40 24,60 71,60 63,0 148,-66 256,-198 81,-97 147,-193 199,-290l27 0c-130,219 -246,369 -348,449 -11,19 -20,41 -27,67 -7,26 -10,47 -10,64 0,24 3,59 8,106 6,47 8,82 8,106 0,99 -37,180 -111,244 -70,66 -160,99 -270,99 -110,0 -165,-40 -165,-120 0,-40 14,-75 42,-104 28,-29 65,-44 110,-44 54,0 81,25 81,74 0,35 -15,53 -44,53l-34 -21c0,-5 3,-12 8,-23 6,-11 8,-19 8,-27 0,-21 -16,-32 -47,-32 -34,0 -60,13 -79,39 -19,26 -29,55 -29,88 0,26 11,49 34,69 23,20 47,30 74,30 117,0 213,-74 287,-223 49,-106 83,-229 101,-368l24 -60c-45,31 -88,46 -128,46 -74,0 -111,-51 -111,-152 0,-68 10,-134 30,-198 -79,111 -134,183 -165,216 -81,90 -153,134 -216,134 -77,0 -115,-62 -115,-187zm776 78c-9,2 -17,9 -24,21l24 -21zm-20372 -4781c0,293 123,537 368,731 223,180 484,271 782,271 642,0 1315,-354 2019,-1062 401,-406 887,-1026 1457,-1861 -303,-86 -546,-124 -729,-115l-120 7c-9,519 -279,1004 -809,1455 -508,433 -1025,650 -1551,650 -308,0 -461,-111 -461,-332 0,-465 357,-891 1070,-1279 611,-329 1179,-508 1705,-535 -58,-406 -301,-609 -729,-609 -415,0 -858,132 -1330,396 -472,264 -862,597 -1170,998 -334,433 -501,862 -501,1286zm990 -250c0,194 138,291 415,291 472,0 972,-226 1498,-677 544,-460 822,-925 836,-1394 -526,27 -1088,199 -1685,514 -709,379 -1063,801 -1063,1266zm7441 -237l20 47c-183,280 -374,420 -575,420 -67,0 -131,-27 -194,-81 -365,596 -686,893 -963,893 -241,0 -361,-171 -361,-514 0,-284 150,-590 451,-917 301,-327 589,-491 866,-491 152,0 227,90 227,271 0,212 -65,449 -194,711 58,50 116,74 174,74 174,0 357,-138 548,-413zm-1732 1238c254,0 562,-302 923,-907 -40,-41 -60,-81 -60,-122 0,-117 67,-180 201,-189 67,-144 100,-284 100,-420 0,-144 -58,-217 -174,-217 -232,0 -486,219 -762,656 -263,406 -394,735 -394,988 0,140 56,210 167,210zm2587 -1184c-13,-23 -20,-41 -20,-54 0,-77 59,-152 177,-227 118,-74 177,-152 177,-233 0,-104 -51,-156 -154,-156 -187,0 -436,215 -745,646 -310,431 -465,748 -465,951 0,68 27,126 80,176 53,50 114,74 181,74 183,0 399,-117 649,-352 4,-9 178,-203 522,-582l60 0c-245,307 -430,517 -555,629 -259,235 -499,352 -722,352 -116,0 -215,-47 -298,-142 -82,-95 -124,-201 -124,-318 0,-280 165,-594 495,-944 330,-350 631,-524 903,-524 156,0 234,72 234,217 0,99 -29,208 -87,325 -67,140 -145,208 -234,203l-74 -41zm1992 -508c0,36 -11,70 -33,102 -22,32 -45,54 -67,68 -22,14 -43,18 -64,14 -20,-5 -30,-23 -30,-54 31,-59 47,-117 47,-176 0,-68 -33,-102 -100,-102 -138,0 -312,90 -521,271 -174,149 -314,300 -421,453 134,54 221,95 261,122 54,108 80,199 80,271 0,90 -32,201 -97,332 -65,131 -97,230 -97,298 0,68 38,102 114,102 120,0 294,-131 521,-393 45,-45 192,-230 441,-555l40 0c-464,654 -796,981 -996,981 -71,0 -133,-30 -184,-91 -51,-61 -77,-127 -77,-200 0,-90 39,-203 117,-338 78,-135 117,-235 117,-298 0,-45 -13,-81 -40,-108 -103,0 -183,-18 -241,-54l-669 1029 -281 0 1190 -1888 294 -7 -267 426c214,-162 325,-246 334,-250 147,-99 274,-149 381,-149 165,0 247,65 247,196zm1217 839c80,81 152,122 214,122 138,0 267,-70 388,-210l53 0c-129,162 -274,244 -435,244 -80,0 -160,-36 -241,-108 -250,316 -392,492 -428,528 -209,217 -394,325 -555,325 -98,0 -184,-38 -257,-115 -74,-77 -110,-165 -110,-264 0,-226 189,-636 568,-1232 370,-573 769,-1090 1197,-1550 468,-510 809,-765 1023,-765 89,0 134,47 134,142 0,253 -216,577 -649,975 -406,374 -744,591 -1016,650 -209,320 -421,641 -635,961 -303,487 -455,808 -455,961 0,50 19,95 57,135 38,41 81,61 130,61 241,0 559,-284 956,-853 -13,-41 -20,-83 -20,-129 0,-126 40,-282 120,-467 94,-212 194,-318 301,-318 31,0 47,20 47,61 0,68 -53,210 -160,426 -89,185 -165,325 -227,420zm-74 -1320c205,-45 515,-268 929,-670 432,-415 649,-717 649,-907 0,-68 -38,-102 -114,-102 -183,0 -450,235 -802,704 -98,131 -319,456 -662,975zm461 1854c0,-203 100,-467 301,-792 165,-239 332,-478 501,-717l281 0c-183,280 -368,559 -555,839 -259,415 -388,695 -388,839 0,95 47,142 140,142 143,0 399,-262 769,-785 116,-167 337,-512 662,-1035l287 0c-187,280 -374,559 -562,839 -259,415 -388,704 -388,866 0,77 47,115 140,115 125,0 294,-126 508,-379 160,-185 292,-370 394,-555l53 0c-401,654 -735,981 -1003,981 -147,0 -221,-97 -221,-291 0,-131 20,-257 60,-379 -156,212 -265,350 -328,413 -160,171 -303,257 -428,257 -152,0 -227,-120 -227,-359zm2815 61c0,-212 98,-485 294,-819 22,-36 76,-116 160,-240 85,-124 203,-294 354,-511l287 0c-94,140 -187,280 -281,420 -94,140 -187,280 -281,420 -259,411 -388,699 -388,866 0,77 47,115 140,115 125,0 294,-126 508,-379 76,-90 146,-183 211,-277 65,-95 124,-187 177,-277l47 0c-392,654 -722,981 -990,981 -71,0 -129,-32 -174,-95 -45,-63 -67,-131 -67,-203zm-334 -1178c62,-189 120,-324 174,-403 53,-79 111,-116 174,-112l94 68c9,63 -11,133 -60,210 -49,77 -149,171 -301,284 -13,72 -16,144 -7,217 9,59 37,111 84,156 47,45 101,68 164,68 94,0 192,-36 294,-108l20 27c-120,86 -227,129 -321,129 -165,0 -263,-97 -294,-291 -9,-59 -9,-117 0,-176l0 -27 -415 555 -40 -7c209,-302 354,-499 435,-589zm3069 -257c0,36 -11,70 -33,102 -22,32 -45,54 -67,68 -22,14 -43,18 -64,14 -20,-5 -30,-23 -30,-54 31,-59 47,-117 47,-176 0,-68 -33,-102 -100,-102 -138,0 -312,90 -521,271 -174,149 -314,300 -421,453 134,54 221,95 261,122 53,108 80,199 80,271 0,90 -32,201 -97,332 -65,131 -97,230 -97,298 0,68 38,102 114,102 120,0 294,-131 521,-393 45,-45 192,-230 441,-555l40 0c-464,654 -796,981 -996,981 -71,0 -133,-30 -184,-91 -51,-61 -77,-127 -77,-200 0,-90 39,-203 117,-338 78,-135 117,-235 117,-298 0,-45 -13,-81 -40,-108 -103,0 -183,-18 -241,-54l-669 1029 -281 0 1190 -1888 294 -7 -267 426c214,-162 325,-246 334,-250 147,-99 274,-149 381,-149 165,0 247,65 247,196zm-194 1374c0,-203 100,-467 301,-792 165,-239 332,-478 501,-717l281 0c-183,280 -368,559 -555,839 -259,415 -388,695 -388,839 0,95 47,142 140,142 143,0 399,-262 769,-785 116,-167 337,-512 662,-1035l287 0c-187,280 -374,559 -562,839 -259,415 -388,704 -388,866 0,77 47,115 140,115 125,0 294,-126 508,-379 160,-185 292,-370 394,-555l53 0c-401,654 -735,981 -1003,981 -147,0 -221,-97 -221,-291 0,-131 20,-257 60,-379 -156,212 -265,350 -328,413 -160,171 -303,257 -428,257 -152,0 -227,-120 -227,-359z"/>
 </g>
</svg>
